<?xml version="1.0" standalone="no"?>
<!DOCTYPE svg PUBLIC "-//W3C//DTD SVG 20010904//EN"
 "http://www.w3.org/TR/2001/REC-SVG-20010904/DTD/svg10.dtd">
<svg version="1.0" xmlns="http://www.w3.org/2000/svg"
 width="512.000000pt" height="512.000000pt" viewBox="0 0 512.000000 512.000000"
 preserveAspectRatio="xMidYMid meet">
<rect width="100%" height="100%" fill="#e5934c" rx="100" ry="100"/>
<g transform="translate(0.000000,512.000000) scale(0.100000,-0.100000)"
fill="#000000" stroke="none">
<path d="M3852 3595 c-12 -25 -29 -45 -38 -45 -55 0 -333 -125 -470 -211 -78
-50 -164 -141 -198 -211 -14 -29 -30 -84 -36 -122 -15 -93 -34 -136 -60 -136
-19 0 -20 -2 -6 -28 14 -27 142 -345 236 -587 95 -246 180 -358 329 -438 78
-42 97 -44 28 -4 -96 57 -189 196 -265 400 -49 128 -63 167 -101 279 -59 174
-69 246 -48 360 41 233 154 349 509 522 182 89 202 107 192 175 -7 44 -29 91
-43 91 -4 0 -17 -20 -29 -45z"/>
<path d="M1260 3446 c7 -9 16 -16 21 -16 5 0 27 -11 48 -25 22 -13 68 -36 103
-50 34 -14 79 -36 98 -49 19 -12 48 -31 64 -41 l29 -19 -13 23 c-21 40 -92
111 -134 136 -46 26 -94 40 -175 50 -49 5 -53 4 -41 -9z"/>
<path d="M2164 3393 c30 -60 205 -448 253 -563 l15 -35 18 34 c16 32 16 35 -1
52 -10 10 -54 92 -97 181 -88 183 -186 365 -209 388 -8 8 1 -17 21 -57z"/>
<path d="M3177 3369 c-56 -13 -114 -45 -164 -92 -71 -66 -83 -85 -383 -617
-73 -129 -163 -289 -200 -355 -37 -66 -97 -174 -132 -240 -36 -66 -80 -147
-98 -180 -18 -33 -40 -73 -48 -90 -9 -16 -22 -36 -29 -43 -7 -7 -13 -18 -13
-23 0 -30 -152 -209 -177 -209 -5 0 -18 -8 -29 -19 -29 -26 -51 -37 -140 -67
-74 -25 -94 -27 -312 -33 l-233 -6 28 -26 c51 -48 111 -61 303 -66 219 -6 316
9 438 69 132 65 188 129 371 432 20 32 53 77 73 100 32 36 39 39 55 28 35 -24
68 -34 114 -34 84 0 102 17 243 240 25 40 53 75 62 79 36 14 61 -14 104 -119
83 -200 102 -243 113 -253 7 -7 8 -4 3 10 -4 11 -59 173 -123 360 -63 187
-117 342 -118 343 -2 2 -64 -117 -139 -265 -75 -149 -144 -278 -155 -287 -22
-20 -84 -37 -98 -27 -25 17 -53 67 -53 94 0 19 20 61 54 116 29 47 75 124 101
171 27 47 84 144 128 215 44 72 102 166 129 210 27 44 88 156 135 248 67 134
97 181 146 233 33 36 73 72 89 80 15 8 28 19 28 24 0 12 -21 11 -73 -1z"/>
<path d="M1925 2546 l0 -673 26 46 c14 25 43 75 63 111 55 95 79 143 67 136
-24 -15 -32 40 -32 214 0 177 5 238 23 273 13 25 20 22 73 -30 26 -27 45 -41
42 -33 -78 194 -239 584 -249 603 -11 22 -13 -78 -13 -647z"/>
<path d="M2041 3059 c-1 -3 17 -54 39 -115 121 -326 160 -440 155 -452 -2 -7
-1 -11 4 -7 5 3 11 0 13 -6 2 -5 13 10 26 35 18 37 19 46 7 46 -14 0 -70 108
-106 200 -7 19 -16 37 -20 40 -3 3 -20 39 -37 80 -35 89 -80 187 -81 179z"/>
<path d="M3250 1655 c83 -88 99 -101 170 -139 99 -52 174 -68 330 -70 115 -1
141 2 174 18 l38 19 -5 53 c-5 53 -25 99 -59 143 -18 24 -18 24 -12 -47 l7
-72 -195 0 c-107 0 -221 5 -253 11 -74 14 -143 48 -203 102 -45 39 -45 39 8
-18z"/>
</g>
</svg>